<?xml version="1.0" encoding="utf-8"?>
<svg viewBox="82.3847 192.1096 311.7728 66.7464" xmlns="http://www.w3.org/2000/svg">
  <g transform="matrix(0.481685996055603, 0, 0, 0.481685996055603, 54.43013261748571, -66.32837530515141)" id="layer1" style="">
    <g transform="matrix(0.9975776,0,0,1,552.88528,780)" id="g6318">
      <path d="M -496.052 -243.458 C -496.052 -243.458 127.054 -243.458 128.519 -243.458 C 156.823 -244.425 164.656 -195.423 128.519 -191.608 L -424.017 -191.608 L -424.017 -104.904 L -496.052 -104.904 Z M -424.017 -224.02 L -424.017 -211.148 L 50.516 -211.148 C 57.354 -213.536 56.871 -222.351 50.516 -224.02 C 49.55 -224.254 -424.017 -224.02 -424.017 -224.02 Z" id="path3508" style="fill: rgb(237, 28, 36); fill-opacity: 1; fill-rule: nonzero; stroke: none;"/>
      <path d="M -399.38054,-104.90423 L -358.10978,-104.90423 L -358.10978,-180.01861 L -399.38054,-180.01861 L -399.38054,-104.90423 z" id="path3512" style="fill: rgb(237, 28, 36); fill-opacity: 1; fill-rule: nonzero; stroke: none;"/>
      <path d="M -292.107 -160.953 L -276.044 -160.953 C -261.1 -160.953 -260.859 -146.991 -275.795 -146.991 C -277.267 -146.991 -292.107 -146.991 -292.107 -146.991 Z M -333.633 -104.904 L -292.107 -104.904 L -292.107 -127.923 L -281.916 -127.923 L -269.191 -104.904 L -219.588 -104.904 L -237.944 -129.826 C -217.143 -139.838 -218.857 -181.211 -250.58 -180.018 C -252.776 -180.018 -333.633 -180.018 -333.633 -180.018 Z" id="path3514" style="fill-opacity: 1; fill-rule: nonzero; stroke: none; fill: rgb(237, 28, 36);"/>
      <path d="M -201.57094,-180.01778 L -201.57094,-104.90423 L -111.41819,-104.90423 L -111.41819,-123.88108 L -159.31556,-123.88108 L -159.31556,-133.88223 L -116.30881,-133.88223 L -116.30881,-152.3801 L -159.0515,-152.3801 L -159.0515,-160.95346 L -114.5953,-160.95346 L -114.5953,-180.01778 L -201.57094,-180.01778" id="path3516" style="fill: rgb(237, 28, 36); fill-opacity: 1; fill-rule: nonzero; stroke: none;"/>
      <path d="M -89.380847,-180.01778 L -89.380847,-104.90423 L -8.0555271,-104.90423 L -8.0555271,-124.101 L -46.888057,-124.101 L -46.888057,-180.01778 L -89.380847,-180.01778" id="path3518" style="fill: rgb(237, 28, 36); fill-opacity: 1; fill-rule: nonzero; stroke: none;"/>
      <path d="M 2.5753729,-180.01778 L 2.5753729,-104.90423 L 83.887373,-104.90423 L 83.887373,-124.101 L 45.069003,-124.101 L 45.069003,-180.01778 L 2.5753729,-180.01778" id="path3520" style="fill: rgb(237, 28, 36); fill-opacity: 1; fill-rule: nonzero; stroke: none;"/>
      <path d="M 96.128483,-104.90423 L 137.40674,-104.90423 L 137.40674,-180.01861 L 96.128483,-180.01861 L 96.128483,-104.90423 z" id="path3522" style="fill: rgb(237, 28, 36); fill-opacity: 1; fill-rule: nonzero; stroke: none;"/>
    </g>
  </g>
</svg>